<?xml version="1.0"?>
<svg xmlns="http://www.w3.org/2000/svg" xmlns:xlink="http://www.w3.org/1999/xlink" viewBox="0 0 512 512" width="512" height="512"><linearGradient id="a" gradientUnits="userSpaceOnUse" x1="198.41" x2="198.41" y1="18" y2="466"><stop offset="0" stop-color="#00efd1"/><stop offset="1" stop-color="#00acea"/></linearGradient><linearGradient id="b" x1="370.179" x2="370.179" xlink:href="#a" y1="18" y2="466"/><path d="m351.413 82.351a15.3 15.3 0 0 0 -13.558-8.351h-278.93a15.335 15.335 0 0 0 -12.3 24.318l102.123 142.882c.044.061.028.148.073.208a26.546 26.546 0 0 1 5.179 15.892v161.1a15.27 15.27 0 0 0 15.29 15.151 15.7 15.7 0 0 0 5.912-1.163l57.578-21.688a14.638 14.638 0 0 0 10.22-14.192v-139.208a26.436 26.436 0 0 1 5.069-15.9c.045-.06-.026-.12.018-.182l102.134-142.854a15.445 15.445 0 0 0 1.192-16.013zm-119.413 147.049a46.881 46.881 0 0 0 -9 27.905v135.803l-49 18.276v-154.084a46.98 46.98 0 0 0 -9.107-27.9l-96.658-135.4h260.309z" fill="url(#a)"/><g fill="url(#b)"><path d="m370.179 241.568a98.111 98.111 0 1 0 98.111 98.111 98.222 98.222 0 0 0 -98.111-98.111zm0 176.222a78.111 78.111 0 1 1 78.111-78.111 78.2 78.2 0 0 1 -78.111 78.111z"/><path d="m400.419 330h-20.419v-20.039a10 10 0 0 0 -20 0v20.039h-20.06a10 10 0 0 0 0 20h20.06v19.918a10 10 0 0 0 20 0v-19.918h20.419a10 10 0 0 0 0-20z"/></g></svg>
